<svg xmlns="http://www.w3.org/2000/svg" width="32" height="32" viewBox="0 0 32 32" fill="none">
    <path opacity="0.5"
        d="M18.6665 5.33325H13.3332C8.30485 5.33325 5.7907 5.33325 4.2286 6.89534C2.6665 8.45745 2.6665 10.9716 2.6665 15.9999C2.6665 21.0282 2.6665 23.5424 4.2286 25.1045C5.7907 26.6666 8.30485 26.6666 13.3332 26.6666H18.6665C23.6948 26.6666 26.209 26.6666 27.771 25.1045C29.3332 23.5424 29.3332 21.0282 29.3332 15.9999C29.3332 10.9716 29.3332 8.45745 27.771 6.89534C26.209 5.33325 23.6948 5.33325 18.6665 5.33325Z"
        fill="#5C07FF" />
    <path
        d="M17.6665 12C17.6665 11.4477 18.1142 11 18.6665 11H25.3332C25.8854 11 26.3332 11.4477 26.3332 12C26.3332 12.5523 25.8854 13 25.3332 13H18.6665C18.1142 13 17.6665 12.5523 17.6665 12Z"
        fill="#5C07FF" />
    <path
        d="M19 16C19 15.4477 19.4477 15 20 15H25.3333C25.8856 15 26.3333 15.4477 26.3333 16C26.3333 16.5523 25.8856 17 25.3333 17H20C19.4477 17 19 16.5523 19 16Z"
        fill="#5C07FF" />
    <path
        d="M20.3335 20C20.3335 19.4477 20.7812 19 21.3335 19H25.3335C25.8858 19 26.3335 19.4477 26.3335 20C26.3335 20.5523 25.8858 21 25.3335 21H21.3335C20.7812 21 20.3335 20.5523 20.3335 20Z"
        fill="#5C07FF" />
    <path
        d="M12.0002 14.6666C13.473 14.6666 14.6668 13.4727 14.6668 11.9999C14.6668 10.5272 13.473 9.33325 12.0002 9.33325C10.5274 9.33325 9.3335 10.5272 9.3335 11.9999C9.3335 13.4727 10.5274 14.6666 12.0002 14.6666Z"
        fill="#5C07FF" />
    <path
        d="M11.9998 22.6666C17.3332 22.6666 17.3332 21.4727 17.3332 19.9999C17.3332 18.5271 14.9453 17.3333 11.9998 17.3333C9.05432 17.3333 6.6665 18.5271 6.6665 19.9999C6.6665 21.4727 6.6665 22.6666 11.9998 22.6666Z"
        fill="#5C07FF" />
</svg>