<svg xmlns="http://www.w3.org/2000/svg" width="32" height="32" viewBox="0 0 32 32" fill="none">
    <path
        d="M6.52197 12.8191C6.52197 12.2826 6.95351 11.8477 7.48583 11.8477H12.6264C13.1587 11.8477 13.5902 12.2826 13.5902 12.8191C13.5902 13.3556 13.1587 13.7905 12.6264 13.7905H7.48583C6.95351 13.7905 6.52197 13.3556 6.52197 12.8191Z"
        fill="#5C07FF" />
    <path fill-rule="evenodd" clip-rule="evenodd"
        d="M28.251 13.3383C28.1681 13.3332 28.0777 13.3332 27.984 13.3333H27.9606H24.2864C21.2578 13.3333 18.6665 15.6481 18.6665 18.6666C18.6665 21.6851 21.2578 23.9999 24.2864 23.9999H27.9606H27.984C28.0777 23.9999 28.1681 23.9999 28.251 23.9949C29.4812 23.9195 30.5692 22.9847 30.6606 21.6791C30.6666 21.5935 30.6665 21.5013 30.6665 21.4158V21.3925V15.9407V15.9174C30.6665 15.8319 30.6666 15.7397 30.6606 15.6541C30.5692 14.3485 29.4812 13.4137 28.251 13.3383ZM23.9606 20.0889C24.7404 20.0889 25.3724 19.4521 25.3724 18.6666C25.3724 17.8811 24.7404 17.2443 23.9606 17.2443C23.1809 17.2443 22.5489 17.8811 22.5489 18.6666C22.5489 19.4521 23.1809 20.0889 23.9606 20.0889Z"
        fill="#5C07FF" />
    <path opacity="0.5"
        d="M28.1857 13.3354C28.1857 11.7613 28.1285 10.0727 27.1222 8.86219C27.025 8.74534 26.9217 8.63187 26.8116 8.52174C25.8137 7.52392 24.5484 7.0811 22.9852 6.87094C21.4662 6.66671 19.5254 6.66673 17.075 6.66675H14.258C11.8076 6.66673 9.86676 6.66671 8.34781 6.87094C6.78458 7.0811 5.51932 7.52392 4.52149 8.52174C3.52368 9.51956 3.08085 10.7848 2.87069 12.3481C2.66646 13.867 2.66649 15.8078 2.6665 18.2582V18.4086C2.66649 20.859 2.66646 22.7998 2.87069 24.3187C3.08085 25.8819 3.52368 27.1473 4.52149 28.1451C5.51932 29.1429 6.78458 29.5857 8.34781 29.7959C9.86674 30.0001 11.8076 30.0001 14.2578 30.0001H17.075C19.5254 30.0001 21.4662 30.0001 22.9852 29.7959C24.5484 29.5857 25.8137 29.1429 26.8116 28.1451C27.0842 27.8724 27.3158 27.5793 27.5126 27.2649C28.1133 26.3055 28.1857 25.1298 28.1857 23.9981C28.1214 24.0001 28.0537 24.0001 27.9841 24.0001H24.2864C21.2578 24.0001 18.6665 21.6853 18.6665 18.6667C18.6665 15.6482 21.2578 13.3334 24.2864 13.3334H27.984C28.0536 13.3334 28.1214 13.3334 28.1857 13.3354Z"
        fill="#5C07FF" />
    <path
        d="M13.4684 3.42956L10.6665 5.32345L8.35547 6.8699C9.87328 6.6667 11.8117 6.66673 14.258 6.66674H17.0751C19.5255 6.66672 21.4663 6.66671 22.9852 6.87093C23.2908 6.912 23.5849 6.96197 23.8679 7.02324L21.3332 5.33341L18.5165 3.42956C17.0117 2.41248 14.9732 2.41248 13.4684 3.42956Z"
        fill="#5C07FF" />
</svg> 