<svg xmlns="http://www.w3.org/2000/svg" width="28" height="28" viewBox="0 0 28 28" fill="none">
    <path d="M0.666992 14.1654C0.666992 6.71033 6.6365 0.666748 14.0002 0.666748C21.3641 0.666748 27.3335 6.71033 27.3335 14.1654V21.1567C27.3339 22.2459 27.3342 22.9929 27.1427 23.6486C26.7683 24.931 25.8731 25.9917 24.6803 26.5661C24.0703 26.8599 23.3415 26.9761 22.2787 27.1455L22.1055 27.1733C21.7275 27.2337 21.4046 27.2853 21.1366 27.3119C20.8578 27.3397 20.5735 27.3482 20.2827 27.2902C19.3259 27.0994 18.5369 26.4169 18.2014 25.4897C18.0995 25.208 18.0635 24.9222 18.047 24.6391C18.0313 24.3671 18.0313 24.0361 18.0313 23.6487L18.0311 18.0855C18.0305 17.5182 18.0299 17.0301 18.1597 16.6121C18.4566 15.6555 19.2321 14.9301 20.1973 14.7057C20.6191 14.6075 21.0998 14.6466 21.6583 14.6919L21.7826 14.7019L21.929 14.7137C22.9739 14.7967 23.6889 14.8537 24.2958 15.0809C24.7223 15.2406 25.1178 15.4605 25.4731 15.7302V14.1654C25.4731 7.75059 20.3365 2.55029 14.0002 2.55029C7.66401 2.55029 2.52745 7.75059 2.52745 14.1654V15.7302C2.88267 15.4605 3.27823 15.2406 3.70471 15.0809C4.31159 14.8537 5.02653 14.7967 6.07146 14.7137L6.2179 14.7019L6.34221 14.6919C6.90078 14.6466 7.38141 14.6075 7.80331 14.7057C8.76849 14.9301 9.54387 15.6555 9.84085 16.6121C9.97065 17.0301 9.97006 17.5182 9.96937 18.0855L9.96927 23.6487C9.96927 24.0361 9.96929 24.3671 9.95349 24.6391C9.93705 24.9222 9.90099 25.208 9.79907 25.4897C9.46371 26.4169 8.67465 27.0994 7.71782 27.2902C7.42701 27.3482 7.14266 27.3397 6.8639 27.3119C6.59594 27.2853 6.27298 27.2337 5.89502 27.1733L5.72174 27.1455C4.65898 26.9761 3.93015 26.8599 3.32021 26.5661C2.12745 25.9917 1.23217 24.931 0.857766 23.6486C0.699886 23.108 0.672379 22.5051 0.667792 21.6997L0.666992 21.4405V14.1654Z" fill="#5C07FF"/>
  </svg> 