<svg xmlns="http://www.w3.org/2000/svg" width="32" height="32" viewBox="0 0 32 32" fill="none">
    <path opacity="0.5"
        d="M2.6665 16.0001C2.6665 9.71468 2.6665 6.57199 4.61913 4.61937C6.57174 2.66675 9.71444 2.66675 15.9998 2.66675C22.2852 2.66675 25.428 2.66675 27.3805 4.61937C29.3332 6.57199 29.3332 9.71468 29.3332 16.0001C29.3332 22.2854 29.3332 25.4282 27.3805 27.3807C25.428 29.3334 22.2852 29.3334 15.9998 29.3334C9.71444 29.3334 6.57174 29.3334 4.61913 27.3807C2.6665 25.4282 2.6665 22.2854 2.6665 16.0001Z"
        fill="#5C07FF" />
    <path
        d="M4.61918 27.3806C6.57186 29.3333 9.71465 29.3333 16.0002 29.3333C22.2858 29.3333 25.4286 29.3333 27.3813 27.3806C29.1906 25.5713 29.3234 22.7401 29.3332 17.3333H25.1201C23.9132 17.3333 23.3097 17.3333 22.7793 17.5773C22.2489 17.8211 21.8561 18.2794 21.0706 19.1957L20.2634 20.1375C19.478 21.0538 19.0852 21.5121 18.5548 21.7559C18.0242 21.9999 17.4209 21.9999 16.214 21.9999H15.7865C14.5796 21.9999 13.9761 21.9999 13.4457 21.7559C12.9152 21.5121 12.5225 21.0538 11.7371 20.1375L10.9298 19.1957C10.1443 18.2794 9.7516 17.8211 9.22116 17.5773C8.6907 17.3333 8.08724 17.3333 6.8803 17.3333H2.6665C2.67624 22.7401 2.80976 25.5713 4.61918 27.3806Z"
        fill="#5C07FF" />
    <path
        d="M16.7072 15.1069C16.5197 15.2945 16.2653 15.3998 16.0001 15.3998C15.7349 15.3998 15.4805 15.2945 15.293 15.1069L10.893 10.7069C10.5025 10.3164 10.5025 9.68324 10.893 9.29272C11.2835 8.90219 11.9167 8.90219 12.3072 9.29271L15.0001 11.9856V2.66707C15.3242 2.66675 15.6573 2.66675 15.9998 2.66675C16.3425 2.66675 16.6758 2.66675 17.0001 2.66707V11.9856L19.693 9.29271C20.0836 8.90219 20.7166 8.90219 21.1072 9.29271C21.4977 9.68324 21.4977 10.3164 21.1072 10.7069L16.7072 15.1069Z"
        fill="#5C07FF" />
</svg>