<svg xmlns="http://www.w3.org/2000/svg" width="32" height="32" viewBox="0 0 32 32" fill="none">
    <path fill-rule="evenodd" clip-rule="evenodd"
        d="M1.3335 26.9875C1.3335 26.4277 1.79163 25.9741 2.35675 25.9741H29.6436C30.2087 25.9741 30.6668 26.4277 30.6668 26.9875C30.6668 27.5471 30.2087 28.0008 29.6436 28.0008H2.35675C1.79163 28.0008 1.3335 27.5471 1.3335 26.9875Z"
        fill="#5C07FF" />
    <path opacity="0.5"
        d="M4.92 5.1872C3.72119 6.37439 3.72119 8.28515 3.72119 12.1067V18.8623C3.72119 21.4099 3.72119 22.6837 4.52039 23.4752C5.3196 24.2667 6.60592 24.2667 9.17855 24.2667H22.822C25.3946 24.2667 26.6809 24.2667 27.4801 23.4752C28.2793 22.6837 28.2793 21.4099 28.2793 18.8623V12.1067C28.2793 8.28515 28.2793 6.37439 27.0805 5.1872C25.8817 4 23.9522 4 20.0933 4H11.9072C8.0483 4 6.11882 4 4.92 5.1872Z"
        fill="#5C07FF" />
    <path
        d="M11.9075 19.2004C11.3424 19.2004 10.8843 19.6542 10.8843 20.2138C10.8843 20.7734 11.3424 21.2271 11.9075 21.2271H20.0936C20.6587 21.2271 21.1168 20.7734 21.1168 20.2138C21.1168 19.6542 20.6587 19.2004 20.0936 19.2004H11.9075Z"
        fill="#5C07FF" />
</svg>