<svg xmlns="http://www.w3.org/2000/svg" width="32" height="32" viewBox="0 0 32 32" fill="none">
    <path opacity="0.5"
        d="M4.22909 9.56209C5.35414 8.43704 6.97305 8.12228 9.66938 8.03421L11.6698 8.00251C12.1917 8 12.7455 8 13.3337 8H18.667C19.2553 8 19.809 8 20.3309 8.00251L22.3313 8.03421C25.0277 8.12228 26.6465 8.43704 27.7715 9.56209C29.3337 11.1242 29.3337 13.6384 29.3337 18.6667C29.3337 23.6949 29.3337 26.2092 27.7715 27.7712C26.2095 29.3333 23.6953 29.3333 18.667 29.3333H13.3336C8.30534 29.3333 5.79118 29.3333 4.22909 27.7712C2.66699 26.2092 2.66699 23.6949 2.66699 18.6667C2.66699 13.6384 2.66699 11.1242 4.22909 9.56209Z"
        fill="#5C07FF" />
    <path
        d="M16.9997 13.3335C16.9997 12.7812 16.5519 12.3335 15.9997 12.3335C15.4474 12.3335 14.9997 12.7812 14.9997 13.3335V13.3471C13.5479 13.7128 12.333 14.8575 12.333 16.4446C12.333 18.3872 14.1531 19.6668 15.9997 19.6668C17.0986 19.6668 17.6663 20.377 17.6663 20.8891C17.6663 21.4011 17.0986 22.1112 15.9997 22.1112C14.9007 22.1112 14.333 21.4011 14.333 20.8891C14.333 20.3368 13.8853 19.8891 13.333 19.8891C12.7807 19.8891 12.333 20.3368 12.333 20.8891C12.333 22.4762 13.5479 23.6208 14.9997 23.9866V24.0002C14.9997 24.5524 15.4474 25.0002 15.9997 25.0002C16.5519 25.0002 16.9997 24.5524 16.9997 24.0002V23.9866C18.4514 23.6208 19.6663 22.4762 19.6663 20.8891C19.6663 18.9464 17.8462 17.6668 15.9997 17.6668C14.9007 17.6668 14.333 16.9567 14.333 16.4446C14.333 15.9326 14.9007 15.2224 15.9997 15.2224C17.0986 15.2224 17.6663 15.9326 17.6663 16.4446C17.6663 16.9968 18.1141 17.4446 18.6663 17.4446C19.2186 17.4446 19.6663 16.9968 19.6663 16.4446C19.6663 14.8575 18.4514 13.7128 16.9997 13.3471V13.3335Z"
        fill="#5C07FF" />
    <path
        d="M16.0693 1.66651H15.9306C14.7326 1.66647 13.7337 1.66644 12.9406 1.77305C12.1035 1.8856 11.3478 2.13316 10.7405 2.74045C10.1332 3.34775 9.88565 4.10348 9.77311 4.94053C9.69668 5.50903 9.67505 6.86847 9.66895 8.03405L11.6693 8.00235C11.6754 6.87348 11.6946 5.6586 11.7553 5.20704C11.838 4.59175 11.981 4.32843 12.1547 4.15467C12.3285 3.98091 12.5918 3.83795 13.2071 3.75523C13.8511 3.66864 14.7146 3.66651 15.9999 3.66651C17.2853 3.66651 18.1486 3.66864 18.7927 3.75523C19.4079 3.83795 19.6713 3.98091 19.845 4.15467C20.0189 4.32843 20.1618 4.59175 20.2445 5.20704C20.3053 5.6586 20.3245 6.87348 20.3305 8.00235L22.3309 8.03405C22.3247 6.86847 22.3031 5.50903 22.2266 4.94053C22.1141 4.10348 21.8666 3.34775 21.2593 2.74045C20.6519 2.13316 19.8962 1.8856 19.0591 1.77305C18.2662 1.66644 17.2671 1.66647 16.0693 1.66651Z"
        fill="#5C07FF" />
</svg>