<svg xmlns="http://www.w3.org/2000/svg" width="32" height="32" viewBox="0 0 32 32" fill="none">
    <path fill-rule="evenodd" clip-rule="evenodd"
        d="M7.83808 3.83832C6.6665 5.00989 6.6665 6.89551 6.6665 10.6667V21.3334C6.6665 25.1046 6.6665 26.9902 7.83808 28.1618C9.00965 29.3334 10.8953 29.3334 14.6665 29.3334H17.3332C21.1044 29.3334 22.99 29.3334 24.1616 28.1618C25.3332 26.9902 25.3332 25.1046 25.3332 21.3334V10.6667C25.3332 6.89551 25.3332 5.00989 24.1616 3.83832C22.99 2.66675 21.1044 2.66675 17.3332 2.66675H14.6665C10.8953 2.66675 9.00965 2.66675 7.83808 3.83832ZM10.9998 22.6667C10.9998 22.1145 11.4476 21.6667 11.9998 21.6667H15.9998C16.5521 21.6667 16.9998 22.1145 16.9998 22.6667C16.9998 23.219 16.5521 23.6667 15.9998 23.6667H11.9998C11.4476 23.6667 10.9998 23.219 10.9998 22.6667ZM11.9998 16.3334C11.4476 16.3334 10.9998 16.7811 10.9998 17.3334C10.9998 17.8857 11.4476 18.3334 11.9998 18.3334H19.9998C20.5521 18.3334 20.9998 17.8857 20.9998 17.3334C20.9998 16.7811 20.5521 16.3334 19.9998 16.3334H11.9998ZM10.9998 12.0001C10.9998 11.4478 11.4476 11.0001 11.9998 11.0001H19.9998C20.5521 11.0001 20.9998 11.4478 20.9998 12.0001C20.9998 12.5524 20.5521 13.0001 19.9998 13.0001H11.9998C11.4476 13.0001 10.9998 12.5524 10.9998 12.0001Z"
        fill="#5C07FF" />
    <path opacity="0.5"
        d="M6.98017 5.41089C6.6665 6.5886 6.6665 8.23593 6.6665 10.6665V21.3333C6.6665 23.7639 6.6665 25.4113 6.9802 26.589L6.6665 26.5651C5.36638 26.4373 4.49126 26.1482 3.83808 25.495C2.6665 24.3234 2.6665 22.4378 2.6665 18.6666V13.3333C2.6665 9.56205 2.6665 7.67642 3.83808 6.50486C4.49126 5.85168 5.36638 5.56266 6.6665 5.43477L6.98017 5.41089Z"
        fill="#5C07FF" />
    <path opacity="0.5"
        d="M25.0195 26.589C25.3333 25.4113 25.3333 23.7639 25.3333 21.3333V10.6665C25.3333 8.23593 25.3333 6.5886 25.0197 5.41089L25.3333 5.43477C26.6334 5.56266 27.5086 5.85168 28.1617 6.50486C29.3333 7.67642 29.3333 9.56205 29.3333 13.3333V18.6666C29.3333 22.4378 29.3333 24.3234 28.1617 25.495C27.5086 26.1482 26.6334 26.4373 25.3333 26.5651L25.0195 26.589Z"
        fill="#5C07FF" />
</svg>