<svg xmlns="http://www.w3.org/2000/svg" width="32" height="32" viewBox="0 0 32 32" fill="none">
    <path opacity="0.5"
        d="M27.381 27.3807C29.3337 25.4282 29.3337 22.2854 29.3337 16.0001C29.3337 9.71468 29.3337 6.57199 27.381 4.61937C25.4285 2.66675 22.2857 2.66675 16.0003 2.66675C9.71493 2.66675 6.57223 2.66675 4.61962 4.61937C2.66699 6.57199 2.66699 9.71468 2.66699 16.0001C2.66699 22.2854 2.66699 25.4282 4.61962 27.3807C6.57223 29.3334 9.71493 29.3334 16.0003 29.3334C22.2857 29.3334 25.4285 29.3334 27.381 27.3807Z"
        fill="#5C07FF" />
    <path
        d="M23.2723 9.20463C23.7117 9.53933 23.7965 10.1668 23.4618 10.6061L14.3189 22.6061C14.1369 22.8451 13.857 22.9895 13.5567 22.9995C13.2566 23.0095 12.9677 22.884 12.7702 22.6577L8.5797 17.8577C8.21649 17.4416 8.25932 16.81 8.67537 16.4468C9.09141 16.0835 9.72313 16.1264 10.0863 16.5424L13.4709 20.4192L21.8709 9.39401C22.2057 8.95471 22.8331 8.86991 23.2723 9.20463Z"
        fill="#5C07FF" />
</svg>