<svg xmlns="http://www.w3.org/2000/svg" width="32" height="32" viewBox="0 0 32 32" fill="none">
  <path opacity="0.5"
    d="M16.0003 29.3337C23.3641 29.3337 29.3337 23.3641 29.3337 16.0003C29.3337 8.63653 23.3641 2.66699 16.0003 2.66699C8.63653 2.66699 2.66699 8.63653 2.66699 16.0003C2.66699 23.3641 8.63653 29.3337 16.0003 29.3337Z"
    fill="#5C07FF" />
  <path fill-rule="evenodd" clip-rule="evenodd"
    d="M5.66666 17.333C5.66666 16.7807 6.11438 16.333 6.66666 16.333H14.6667C15.2189 16.333 15.6667 16.7807 15.6667 17.333V25.333C15.6667 25.8853 15.2189 26.333 14.6667 26.333C14.1144 26.333 13.6667 25.8853 13.6667 25.333V19.7473L4.7071 28.7067C4.31658 29.0973 3.68341 29.0973 3.29289 28.7067C2.90237 28.3162 2.90237 27.6831 3.29289 27.2926L12.2524 18.333H6.66666C6.11438 18.333 5.66666 17.8853 5.66666 17.333Z"
    fill="#5C07FF" />
</svg>