<svg xmlns="http://www.w3.org/2000/svg" width="32" height="32" viewBox="0 0 32 32" fill="none">
    <path fill-rule="evenodd" clip-rule="evenodd" d="M9.33317 6.66699H14.6665C17.1806 6.66699 18.4377 6.66699 19.2188 7.44805C19.9998 8.22909 19.9998 9.48617 19.9998 12.0003V28.3337H21.9998H27.9998H29.3332C29.8854 28.3337 30.3332 28.7814 30.3332 29.3337C30.3332 29.8859 29.8854 30.3337 29.3332 30.3337H2.6665C2.11422 30.3337 1.6665 29.8859 1.6665 29.3337C1.6665 28.7814 2.11422 28.3337 2.6665 28.3337H3.99984V12.0003C3.99984 9.48617 3.99984 8.22909 4.78089 7.44805C5.56193 6.66699 6.81901 6.66699 9.33317 6.66699ZM6.99984 10.667C6.99984 10.1147 7.44756 9.66699 7.99984 9.66699H15.9998C16.5521 9.66699 16.9998 10.1147 16.9998 10.667C16.9998 11.2193 16.5521 11.667 15.9998 11.667H7.99984C7.44756 11.667 6.99984 11.2193 6.99984 10.667ZM6.99984 14.667C6.99984 14.1147 7.44756 13.667 7.99984 13.667H15.9998C16.5521 13.667 16.9998 14.1147 16.9998 14.667C16.9998 15.2193 16.5521 15.667 15.9998 15.667H7.99984C7.44756 15.667 6.99984 15.2193 6.99984 14.667ZM6.99984 18.667C6.99984 18.1147 7.44756 17.667 7.99984 17.667H15.9998C16.5521 17.667 16.9998 18.1147 16.9998 18.667C16.9998 19.2193 16.5521 19.667 15.9998 19.667H7.99984C7.44756 19.667 6.99984 19.2193 6.99984 18.667ZM11.9998 24.3337C12.5521 24.3337 12.9998 24.7814 12.9998 25.3337V28.3337H10.9998V25.3337C10.9998 24.7814 11.4476 24.3337 11.9998 24.3337Z" fill="#5C07FF"/>
    <path opacity="0.5" d="M19.9998 2.66699H22.6665C25.1806 2.66699 26.4377 2.66699 27.2187 3.44805C27.9998 4.22909 27.9998 5.48617 27.9998 8.00033V28.3337H19.9998V12.0003C19.9998 9.48617 19.9998 8.22909 19.2187 7.44805C18.4553 6.68458 17.237 6.66739 14.8345 6.66701V4.66698C14.9469 4.15066 15.1345 3.76111 15.4475 3.44805C16.2285 2.66699 17.4857 2.66699 19.9998 2.66699Z" fill="#5C07FF"/>
  </svg>