<svg xmlns="http://www.w3.org/2000/svg" width="32" height="32" viewBox="0 0 32 32" fill="none">
  <path opacity="0.5" d="M2.6665 15C2.6665 11.134 5.3528 8 8.6665 8C11.9802 8 14.6665 11.134 14.6665 15V26.6667H5.64325C3.99924 26.6667 2.6665 25.1119 2.6665 23.1937V15Z" fill="#5C07FF"/>
  <path opacity="0.8" d="M14.6665 15V26.6667H18.6665H19.9998H26.3906C28.0157 26.6667 29.3332 25.1297 29.3332 23.2337V15C29.3332 11.134 26.6469 8 23.3332 8H8.6665C11.9802 8 14.6665 11.134 14.6665 15Z" fill="#5C07FF"/>
  <path d="M12.6665 26.667V29.3337C12.6665 29.8859 13.1142 30.3337 13.6665 30.3337C14.2188 30.3337 14.6665 29.8859 14.6665 29.3337V26.667H12.6665Z" fill="#5C07FF"/>
  <path d="M20 26.667H18V29.3337C18 29.8859 18.4477 30.3337 19 30.3337C19.5523 30.3337 20 29.8859 20 29.3337V26.667Z" fill="#5C07FF"/>
  <path fill-rule="evenodd" clip-rule="evenodd" d="M5.6665 21.333C5.6665 20.7807 6.11422 20.333 6.6665 20.333H10.6665C11.2188 20.333 11.6665 20.7807 11.6665 21.333C11.6665 21.8853 11.2188 22.333 10.6665 22.333H6.6665C6.11422 22.333 5.6665 21.8853 5.6665 21.333Z" fill="#5C07FF"/>
  <path fill-rule="evenodd" clip-rule="evenodd" d="M23.1796 8.77994L23.5211 8.71158C24.0754 8.60062 24.6486 8.65359 25.1754 8.8645C26.0958 9.23303 27.1023 9.30187 28.0612 9.0619L28.1432 9.04139C28.8414 8.86666 29.3335 8.21765 29.3335 7.47147V4.63078C29.3335 3.64703 28.4479 2.92226 27.5274 3.15261C26.9988 3.28489 26.444 3.24694 25.9366 3.04381L25.8392 3.00479C24.9898 2.6647 24.0656 2.57927 23.1718 2.75821L22.5735 2.87798C21.8536 3.02209 21.3335 3.67662 21.3335 4.43827V13.7079C21.3335 14.2377 21.7468 14.667 22.2566 14.667C22.7664 14.667 23.1796 14.2377 23.1796 13.7079V8.77994Z" fill="#5C07FF"/>
</svg>