<svg xmlns="http://www.w3.org/2000/svg" width="32" height="32" viewBox="0 0 32 32" fill="none">
  <path opacity="0.5" fill-rule="evenodd" clip-rule="evenodd" d="M29.3332 11.0582C29.3332 15.6926 25.5609 19.4495 20.9074 19.4495C20.0584 19.4495 18.125 19.2543 17.1845 18.4738L16.0088 19.6447C15.3176 20.3331 15.5042 20.5358 15.8117 20.8697C15.94 21.009 16.0894 21.1711 16.2048 21.401C16.2048 21.401 17.1845 22.767 16.2048 24.133C15.6169 24.9135 13.9709 26.0063 12.0899 24.133L11.698 24.5233C11.698 24.5233 12.8737 25.8893 11.8939 27.2553C11.3061 28.0359 9.73854 28.8165 8.36692 27.4505L6.9953 28.8165C6.05476 29.7531 4.90524 29.2067 4.44805 28.8165L3.27238 27.6455C2.17508 26.5527 2.81517 25.3689 3.27238 24.9135L13.4616 14.7661C13.4616 14.7661 12.4818 13.2048 12.4818 11.0582C12.4818 6.42389 16.2541 2.66699 20.9074 2.66699C25.5609 2.66699 29.3332 6.42389 29.3332 11.0582Z" fill="#5C07FF"/>
  <path d="M23.847 11.058C23.847 12.6747 22.5312 13.9852 20.908 13.9852C19.2846 13.9852 17.9688 12.6747 17.9688 11.058C17.9688 9.44141 19.2846 8.13086 20.908 8.13086C22.5312 8.13086 23.847 9.44141 23.847 11.058Z" fill="#5C07FF"/>
</svg>