<svg width="24" height="25" viewBox="0 0 24 25" fill="none" xmlns="http://www.w3.org/2000/svg">
<g id="Bold Duotone / Arrows / Round Arrow Up">
<path id="Vector" opacity="0.5" d="M2 12.5C2 6.97715 6.47715 2.5 12 2.5C17.5228 2.5 22 6.97715 22 12.5C22 18.0228 17.5228 22.5 12 22.5C6.47715 22.5 2 18.0228 2 12.5Z" fill="#5F48FF"/>
<path id="Vector_2" d="M15.5303 10.9697C15.8232 11.2626 15.8232 11.7374 15.5303 12.0303C15.2374 12.3232 14.7626 12.3232 14.4697 12.0303L12.75 10.3107V16.5C12.75 16.9142 12.4142 17.25 12 17.25C11.5858 17.25 11.25 16.9142 11.25 16.5V10.3107L9.53033 12.0303C9.23744 12.3232 8.76256 12.3232 8.46967 12.0303C8.17678 11.7374 8.17678 11.2626 8.46967 10.9697L11.4697 7.96967C11.7626 7.67678 12.2374 7.67678 12.5303 7.96967L15.5303 10.9697Z" fill="#5F48FF"/>
</g>
</svg>
