<svg width="25" height="25" viewBox="0 0 25 25" fill="none" xmlns="http://www.w3.org/2000/svg">
<g id="Bold Duotone / Video, Audio, Sound / Camera Minimalistic">
<path id="Vector" opacity="0.5" d="M10.2778 21.5H14.7222C17.8433 21.5 19.4038 21.5 20.5248 20.7777C21.01 20.465 21.4267 20.0632 21.751 19.5953C22.5 18.5143 22.5 17.0095 22.5 13.9999C22.5 10.9903 22.4998 9.4857 21.7508 8.40473C21.4266 7.93676 21.0099 7.53497 20.5246 7.22228C19.4036 6.5 17.8431 6.5 14.7221 6.5H10.2776C7.15659 6.5 5.59607 6.5 4.47508 7.22228C3.98979 7.53497 3.57312 7.93676 3.24886 8.40473C2.5 9.48547 2.5 10.9896 2.5 13.9979V13.9999C2.5 17.0095 2.5 18.5143 3.24902 19.5953C3.57328 20.0632 3.98995 20.465 4.47524 20.7777C5.59624 21.5 7.15675 21.5 10.2778 21.5Z" fill="#5F48FF"/>
<path id="Vector_2" fill-rule="evenodd" clip-rule="evenodd" d="M8.5 4.5C8.5 3.94772 8.91328 3.5 9.42308 3.5H15.5769C16.0867 3.5 16.5 3.94772 16.5 4.5C16.5 5.05228 16.0867 5.5 15.5769 5.5H9.42308C8.91328 5.5 8.5 5.05228 8.5 4.5Z" fill="#5F48FF"/>
<path id="Vector_3" fill-rule="evenodd" clip-rule="evenodd" d="M17.7778 10.786C17.7778 10.3422 18.1509 9.98242 18.6112 9.98242H19.1667C19.627 9.98242 20.0001 10.3422 20.0001 10.786C20.0001 11.2298 19.627 11.5896 19.1667 11.5896H18.6112C18.1509 11.5896 17.7778 11.2298 17.7778 10.786Z" fill="white"/>
<path id="Vector_4" fill-rule="evenodd" clip-rule="evenodd" d="M8.3335 14.0003C8.3335 11.7813 10.199 9.98242 12.5002 9.98242C14.8014 9.98242 16.6668 11.7813 16.6668 14.0003C16.6668 16.2194 14.8014 18.0183 12.5002 18.0183C10.199 18.0183 8.3335 16.2194 8.3335 14.0003ZM10.0002 14.0003C10.0002 12.6689 11.1195 11.5896 12.5002 11.5896C13.8809 11.5896 15.0002 12.6689 15.0002 14.0003C15.0002 15.3318 13.8809 16.4111 12.5002 16.4111C11.1195 16.4111 10.0002 15.3318 10.0002 14.0003Z" fill="#5F48FF"/>
<path id="Vector_5" fill-rule="evenodd" clip-rule="evenodd" d="M18.6112 9.98242C18.1509 9.98242 17.7778 10.3422 17.7778 10.786C17.7778 11.2298 18.1509 11.5896 18.6112 11.5896H19.1667C19.627 11.5896 20.0001 11.2298 20.0001 10.786C20.0001 10.3422 19.627 9.98242 19.1667 9.98242H18.6112Z" fill="#5F48FF"/>
</g>
</svg>
