<svg xmlns="http://www.w3.org/2000/svg" width="64" height="65" viewBox="0 0 64 65" fill="none">
  <path opacity="0.5" d="M10.0195 46.8834L13.818 50.6818L17.6172 54.4807C19.9294 56.793 21.0855 57.9492 22.5557 58.558C24.0259 59.1671 25.6609 59.1671 28.9309 59.1671H35.0701C38.3399 59.1671 39.9751 59.1671 41.4453 58.558C42.9154 57.9492 44.0714 56.793 46.3837 54.4807L53.9807 46.8836C56.293 44.5714 57.4492 43.4154 58.0581 41.9452C58.6671 40.4748 58.6671 38.8399 58.6671 35.57V29.4308C58.6671 26.1608 58.6671 24.5258 58.0581 23.0557C57.4492 21.5855 56.293 20.4294 53.9807 18.1171L50.1821 14.3186L46.3831 10.5198C44.0709 8.20755 42.9149 7.05142 41.4447 6.44246C39.9746 5.8335 38.3394 5.8335 35.0695 5.8335H28.9303C25.6604 5.8335 24.0254 5.8335 22.5552 6.44246C21.085 7.05142 19.9289 8.20755 17.6167 10.5198L10.0195 18.1169C7.70731 20.4291 6.55117 21.5853 5.94221 23.0554C5.33325 24.5256 5.33325 26.1606 5.33325 29.4306V35.5698C5.33325 38.8396 5.33325 40.4748 5.94221 41.945C6.55117 43.4151 7.70731 44.5711 10.0195 46.8834Z" fill="#B20D21"/>
  <path d="M50.1815 14.3188L13.8176 50.6822" stroke="#B20D21" stroke-width="1.5"/>
</svg>