<svg width="16" height="16" viewBox="0 0 16 16" fill="none" xmlns="http://www.w3.org/2000/svg">
<g id="Bold / Security / Eye">
<path id="Vector" d="M6.5 8C6.5 7.1716 7.1716 6.5 8 6.5C8.8284 6.5 9.5 7.1716 9.5 8C9.5 8.8284 8.8284 9.5 8 9.5C7.1716 9.5 6.5 8.8284 6.5 8Z" fill="#E3DFFF"/>
<path id="Vector_2" fill-rule="evenodd" clip-rule="evenodd" d="M1.3335 7.99984C1.3335 9.09277 1.6168 9.46084 2.18342 10.197C3.3148 11.6668 5.21224 13.3332 8.00016 13.3332C10.7881 13.3332 12.6855 11.6668 13.8169 10.197C14.3835 9.46084 14.6668 9.09277 14.6668 7.99984C14.6668 6.9069 14.3835 6.53886 13.8169 5.80272C12.6855 4.33288 10.7881 2.6665 8.00016 2.6665C5.21224 2.6665 3.3148 4.33288 2.18342 5.80272C1.6168 6.53886 1.3335 6.9069 1.3335 7.99984ZM8.00016 5.49984C6.61945 5.49984 5.50016 6.61912 5.50016 7.99984C5.50016 9.38057 6.61945 10.4998 8.00016 10.4998C9.3809 10.4998 10.5002 9.38057 10.5002 7.99984C10.5002 6.61912 9.3809 5.49984 8.00016 5.49984Z" fill="#E3DFFF"/>
</g>
</svg>
