<svg width="62" height="30" viewBox="0 0 62 30" fill="none" xmlns="http://www.w3.org/2000/svg">
<path d="M31.4896 0C35.5801 0 39.6707 0 43.8852 0C43.9928 1.00072 44.1005 2.00144 44.2114 3.03249C45.0404 7.65069 47.6587 11.7437 51.5063 14.4445C54.5987 16.5511 57.7669 17.2591 61.5 17.5451C61.5 21.6552 61.5 25.7653 61.5 30C58.0833 29.874 58.0833 29.874 56.9944 29.7022C56.8053 29.6735 56.8053 29.6735 56.6124 29.6443C55.503 29.4692 54.4213 29.2366 53.345 28.917C53.2453 28.8874 53.1457 28.8578 53.0431 28.8274C49.2501 27.6787 45.7668 25.8846 42.6891 23.3935C42.6036 23.3251 42.6036 23.3251 42.5164 23.2553C40.7893 21.8635 39.0334 20.2602 37.7961 18.4116C37.7602 22.2357 37.7243 26.0599 37.6874 30C31.5528 29.7737 25.6577 28.3311 20.6162 24.6931C20.5467 24.6435 20.4772 24.5938 20.4055 24.5427C18.1513 22.9256 15.9977 21.0529 14.3097 18.8448C14.0585 18.5231 13.8074 18.2014 13.5486 17.87C13.5127 21.8729 13.4768 25.8758 13.4398 30C11.1451 29.873 11.1451 29.873 10.3409 29.6683C10.2464 29.6449 10.152 29.6215 10.0546 29.5974C6.79613 28.741 4.00424 26.5802 2.26004 23.7231C1.62529 22.63 1.14072 21.4764 0.826756 20.2527C0.794378 20.1329 0.762 20.0131 0.728641 19.8897C0.477489 18.8683 0.500555 18.1098 0.500555 17.0036C4.59111 17.0036 8.68166 17.0036 12.8962 17.0036C12.6091 16.539 12.3221 16.0744 12.0263 15.5957C10.3211 12.7648 9.02389 9.73143 8.32936 6.49819C8.31287 6.42251 8.29639 6.34682 8.2794 6.26884C7.84252 4.22593 7.76115 2.2048 7.67696 0.108303C11.7675 0.108303 15.8581 0.108303 20.0726 0.108303C20.1802 1.00181 20.2879 1.89531 20.3988 2.81588C20.4963 3.33125 20.5963 3.82631 20.725 4.33213C20.7573 4.46741 20.7897 4.60269 20.8231 4.74207C21.0324 5.59313 21.3092 6.36561 21.7036 7.14801C21.7708 7.28685 21.8379 7.42576 21.9049 7.56473C23.0744 9.96972 24.6697 12.1275 26.814 13.7545C26.8728 13.8007 26.9316 13.8469 26.9922 13.8944C28.0908 14.757 29.2496 15.4288 30.511 16.0289C30.5793 16.0617 30.6476 16.0945 30.7179 16.1282C32.4542 16.9421 34.5732 17.4679 36.4981 17.4436C36.6003 17.4426 36.7025 17.4416 36.8077 17.4406C36.8827 17.4394 36.9577 17.4381 37.035 17.4368C36.9678 17.3397 36.9007 17.2425 36.8315 17.1424C36.1529 16.1505 35.5362 15.1384 34.969 14.0794C34.9324 14.0112 34.8957 13.9431 34.8579 13.8728C33.1489 10.6669 32.0701 7.18676 31.6119 3.58755C31.5988 3.48882 31.5858 3.3901 31.5723 3.28839C31.4469 2.18299 31.4896 1.13098 31.4896 0Z" fill="#191716"/>
</svg>
