<svg xmlns="http://www.w3.org/2000/svg" width="31" height="20" viewBox="0 0 31 20" fill="none">
    <path d="M19.6915 2.13801H11.3089V17.862H19.6915V2.13801Z" fill="#FF5F00"/>
    <path d="M11.8412 10C11.8399 8.48567 12.1686 6.99086 12.8026 5.62876C13.4365 4.26665 14.359 3.07294 15.5002 2.138C14.087 0.978459 12.3897 0.257355 10.6024 0.0571128C8.81509 -0.14313 7.00987 0.185562 5.39307 1.00563C3.77627 1.8257 2.41311 3.10406 1.45943 4.69459C0.50574 6.28511 0 8.12363 0 10C0 11.8764 0.50574 13.7149 1.45943 15.3054C2.41311 16.8959 3.77627 18.1743 5.39307 18.9944C7.00987 19.8144 8.81509 20.1431 10.6024 19.9429C12.3897 19.7426 14.087 19.0215 15.5002 17.862C14.359 16.927 13.4365 15.7333 12.8026 14.3712C12.1687 13.0091 11.8399 11.5143 11.8412 10Z" fill="#EB001B"/>
    <path d="M31 10C31.0001 11.8763 30.4944 13.7149 29.5407 15.3054C28.5871 16.8959 27.224 18.1743 25.6072 18.9943C23.9905 19.8144 22.1853 20.1431 20.398 19.9429C18.6107 19.7426 16.9135 19.0215 15.5002 17.862C16.6405 16.9261 17.5622 15.7322 18.1961 14.3703C18.8299 13.0084 19.1592 11.5141 19.1592 10C19.1592 8.4859 18.8299 6.99157 18.1961 5.62968C17.5622 4.26779 16.6405 3.07389 15.5002 2.138C16.9135 0.978457 18.6107 0.25735 20.398 0.0571102C22.1853 -0.14313 23.9905 0.185576 25.6072 1.00566C27.224 1.82574 28.5871 3.1041 29.5407 4.69462C30.4944 6.28515 31.0001 8.12365 31 10Z" fill="#F79E1B"/>
    <path d="M30.086 16.1966V15.8747H30.2104V15.8091H29.8937V15.8747H30.0181V16.1966H30.086ZM30.7009 16.1966V15.8084H30.6038L30.4921 16.0754L30.3804 15.8084H30.2833V16.1966H30.3519V15.9038L30.4566 16.1562H30.5277L30.6324 15.9032V16.1966H30.7009Z" fill="#F79E1B"/>
  </svg>