<svg xmlns="http://www.w3.org/2000/svg" width="16" height="16" viewBox="0 0 16 16" fill="none">
    <path opacity="0.5"
        d="M14.6663 8.00016C14.6663 11.682 11.6815 14.6668 7.99967 14.6668C4.31777 14.6668 1.33301 11.682 1.33301 8.00016C1.33301 4.31826 4.31777 1.3335 7.99967 1.3335C11.6815 1.3335 14.6663 4.31826 14.6663 8.00016Z"
        fill="#1C274C" />
    <path
        d="M8.5 6C8.5 5.72386 8.27613 5.5 8 5.5C7.72387 5.5 7.5 5.72386 7.5 6V7.5H6C5.72386 7.5 5.5 7.72387 5.5 8C5.5 8.27613 5.72386 8.5 6 8.5H7.5V10C7.5 10.2761 7.72387 10.5 8 10.5C8.27613 10.5 8.5 10.2761 8.5 10V8.5H10C10.2761 8.5 10.5 8.27613 10.5 8C10.5 7.72387 10.2761 7.5 10 7.5H8.5V6Z"
        fill="#1C274C" />
</svg>