<svg xmlns="http://www.w3.org/2000/svg" width="16" height="16" viewBox="0 0 16 16" fill="none">
    <path fill-rule="evenodd" clip-rule="evenodd"
        d="M7.66683 1.8335C4.44517 1.8335 1.8335 4.44517 1.8335 7.66683C1.8335 10.8885 4.44517 13.5002 7.66683 13.5002C10.8885 13.5002 13.5002 10.8885 13.5002 7.66683C13.5002 4.44517 10.8885 1.8335 7.66683 1.8335ZM0.833496 7.66683C0.833496 3.89288 3.89288 0.833496 7.66683 0.833496C11.4408 0.833496 14.5002 3.89288 14.5002 7.66683C14.5002 11.4408 11.4408 14.5002 7.66683 14.5002C3.89288 14.5002 0.833496 11.4408 0.833496 7.66683ZM12.98 12.98C13.1752 12.7847 13.4918 12.7847 13.687 12.98L15.0204 14.3133C15.2156 14.5086 15.2156 14.8251 15.0204 15.0204C14.8251 15.2156 14.5086 15.2156 14.3133 15.0204L12.98 13.687C12.7847 13.4918 12.7847 13.1752 12.98 12.98Z"
        fill="#191716" />
</svg>
    