<svg xmlns="http://www.w3.org/2000/svg" width="24" height="25" viewBox="0 0 24 25" fill="none">
    <path d="M16 2.5H15C13.5858 2.5 12.8787 2.5 12.4393 2.93934C12 3.37868 12 4.08579 12 5.5C12 6.91421 12 7.62132 12.4393 8.06066C12.8787 8.5 13.5858 8.5 15 8.5H16C17.4142 8.5 18.1213 8.5 18.5607 8.06066C18.8453 7.77601 18.9455 7.37895 18.9808 6.75H19L20.6154 7.42308C21.2416 7.684 21.5547 7.81446 21.7774 7.66603C22 7.51759 22 7.17839 22 6.5V4.5C22 3.82161 22 3.48241 21.7774 3.33397C21.5547 3.18554 21.2416 3.316 20.6154 3.57692L19 4.25H18.9808C18.9455 3.62105 18.8453 3.22399 18.5607 2.93934C18.1213 2.5 17.4142 2.5 16 2.5Z" fill="#5C07FF"/>
    <path d="M7.9846 18C5.14528 18 3.72562 18 2.84356 17.1213C2.27207 16.552 2.07085 15.7579 2 14.5V13.5H22V14.5C21.9292 15.7579 21.7279 16.552 21.1564 17.1213C20.2744 18 18.8547 18 16.0154 18H12.7529V22H16.0154C16.4312 22 16.7683 22.3358 16.7683 22.75C16.7683 23.1642 16.4312 23.5 16.0154 23.5H7.9846C7.56879 23.5 7.23171 23.1642 7.23171 22.75C7.23171 22.3358 7.56879 22 7.9846 22H11.2471V18H7.9846Z" fill="#5C07FF"/>
    <g opacity="0.5">
      <path d="M21.9999 10.5V11.5C21.9999 12.0516 21.9935 13.0494 21.987 13.5H1.99998C1.99346 13.0494 1.99992 12.0516 1.99992 11.5V10.5C1.99992 6.72876 1.99992 4.84315 3.1715 3.67157C4.34307 2.5 6.22869 2.5 9.99992 2.5H10.9181C10.7128 2.88433 10.6178 3.28593 10.5682 3.65422C10.4997 4.16409 10.4998 4.78228 10.4999 5.41839V5.5V5.58161C10.4998 6.21772 10.4997 6.83591 10.5682 7.34578C10.6455 7.92058 10.8338 8.5765 11.3786 9.12132C11.9234 9.66614 12.5794 9.85443 13.1542 9.93171C13.664 10.0003 14.2822 10.0001 14.9183 10L14.9999 10H15.9999L16.0816 10C16.7177 10.0001 17.3359 10.0003 17.8457 9.93171C18.4205 9.85443 19.0764 9.66614 19.6213 9.12132C19.7371 9.00545 19.837 8.88432 19.9233 8.75972L20.0384 8.80769L20.0951 8.83138C20.355 8.93991 20.6841 9.07739 20.9795 9.15219C21.2132 9.21133 21.5856 9.27441 21.9977 9.17938C21.9999 9.59197 21.9999 10.0314 21.9999 10.5Z" fill="#5C07FF"/>
    </g>
  </svg>